HIERARCHY
ROOT Hips
{
	OFFSET 0.000000 89.005402 0.000000
	CHANNELS 6 Xposition Yposition Zposition Xrotation Yrotation Zrotation
	JOINT Spine
	{
		OFFSET 0.116900 10.681000 0.373400
		CHANNELS 3 Xrotation Yrotation Zrotation
		JOINT Spine1
		{
			OFFSET 0.000000 13.840401 0.053500
			CHANNELS 3 Xrotation Yrotation Zrotation
			JOINT Spine2
			{
				OFFSET 0.000000 14.712700 -0.366200
				CHANNELS 3 Xrotation Yrotation Zrotation
				JOINT Neck
				{
					OFFSET 0.000000 35.415497 -3.314200
					CHANNELS 3 Xrotation Yrotation Zrotation
					JOINT Head
					{
						OFFSET 0.000000 16.899200 1.218300
						CHANNELS 3 Xrotation Yrotation Zrotation
						JOINT HeadTop_End
						{
							OFFSET 0.000000 22.206207 2.192500
							CHANNELS 3 Xrotation Yrotation Zrotation
							End Site
							{
								OFFSET 0.000000 22.314178 0.000000
							}
						}
					}
				}
				JOINT LeftShoulder
				{
					OFFSET 12.896400 26.716293 -4.548400
					CHANNELS 3 Xrotation Yrotation Zrotation
					JOINT LeftArm
					{
						OFFSET 19.027000 -4.857010 -1.718400
						CHANNELS 3 Xrotation Yrotation Zrotation
						JOINT LeftForeArm
						{
							OFFSET 24.179897 0.000000 0.000000
							CHANNELS 3 Xrotation Yrotation Zrotation
							JOINT LeftHand
							{
								OFFSET 27.156403 0.000000 0.000000
								CHANNELS 3 Xrotation Yrotation Zrotation
								JOINT LeftHandIndex1
								{
									OFFSET 16.441200 0.000000 0.000000
									CHANNELS 3 Xrotation Yrotation Zrotation
									JOINT LeftHandIndex2
									{
										OFFSET 4.821899 0.000000 0.000000
										CHANNELS 3 Xrotation Yrotation Zrotation
										JOINT LeftHandIndex3
										{
											OFFSET 6.386497 0.000000 0.000000
											CHANNELS 3 Xrotation Yrotation Zrotation
											JOINT LeftHandIndex4
											{
												OFFSET 5.188988 0.000000 0.000000
												CHANNELS 3 Xrotation Yrotation Zrotation
												End Site
												{
													OFFSET -0.178703 5.185913 0.000177
												}
											}
										}
									}
								}
								JOINT LeftHandThumb1
								{
									OFFSET 6.534897 -5.032593 5.900300
									CHANNELS 3 Xrotation Yrotation Zrotation
									JOINT LeftHandThumb2
									{
										OFFSET 3.818176 -2.204422 2.204423
										CHANNELS 3 Xrotation Yrotation Zrotation
										JOINT LeftHandThumb3
										{
											OFFSET 3.252098 -1.877594 1.877601
											CHANNELS 3 Xrotation Yrotation Zrotation
											JOINT LeftHandThumb4
											{
												OFFSET 5.251778 -3.032120 3.032117
												CHANNELS 3 Xrotation Yrotation Zrotation
												End Site
												{
													OFFSET 0.000023 6.780014 0.000000
												}
											}
										}
									}
								}
							}
						}
					}
				}
				JOINT RightShoulder
				{
					OFFSET -12.896300 26.716293 -4.548400
					CHANNELS 3 Xrotation Yrotation Zrotation
					JOINT RightArm
					{
						OFFSET -19.027000 -4.857010 -1.718400
						CHANNELS 3 Xrotation Yrotation Zrotation
						JOINT RightForeArm
						{
							OFFSET -24.179897 0.000000 0.000000
							CHANNELS 3 Xrotation Yrotation Zrotation
							JOINT RightHand
							{
								OFFSET -27.156403 0.000000 0.000000
								CHANNELS 3 Xrotation Yrotation Zrotation
								JOINT RightHandThumb1
								{
									OFFSET -6.591202 -4.852203 5.988100
									CHANNELS 3 Xrotation Yrotation Zrotation
									JOINT RightHandThumb2
									{
										OFFSET -3.818176 -2.204422 2.204423
										CHANNELS 3 Xrotation Yrotation Zrotation
										JOINT RightHandThumb3
										{
											OFFSET -3.252098 -1.877594 1.877601
											CHANNELS 3 Xrotation Yrotation Zrotation
											JOINT RightHandThumb4
											{
												OFFSET -5.251778 -3.032120 3.032117
												CHANNELS 3 Xrotation Yrotation Zrotation
												End Site
												{
													OFFSET -0.000023 6.780014 0.000000
												}
											}
										}
									}
								}
								JOINT RightHandIndex1
								{
									OFFSET -16.029404 0.000000 0.000000
									CHANNELS 3 Xrotation Yrotation Zrotation
									JOINT RightHandIndex2
									{
										OFFSET -5.213303 0.000000 0.000000
										CHANNELS 3 Xrotation Yrotation Zrotation
										JOINT RightHandIndex3
										{
											OFFSET -6.386528 0.000000 0.000000
											CHANNELS 3 Xrotation Yrotation Zrotation
											JOINT RightHandIndex4
											{
												OFFSET -5.189026 0.000000 0.000000
												CHANNELS 3 Xrotation Yrotation Zrotation
												End Site
												{
													OFFSET 0.236702 5.183624 0.001972
												}
											}
										}
									}
								}
							}
						}
					}
				}
			}
		}
	}
	JOINT LeftUpLeg
	{
		OFFSET 14.073000 -7.904099 -1.463000
		CHANNELS 3 Xrotation Yrotation Zrotation
		JOINT LeftLeg
		{
			OFFSET -0.109806 -34.073280 4.093200
			CHANNELS 3 Xrotation Yrotation Zrotation
			JOINT LeftFoot
			{
				OFFSET 0.109806 -29.899420 -6.319000
				CHANNELS 3 Xrotation Yrotation Zrotation
				JOINT LeftToeBase
				{
					OFFSET 1.551100 -14.988700 20.535801
					CHANNELS 3 Xrotation Yrotation Zrotation
					JOINT LeftToe_End
					{
						OFFSET 0.221200 0.570800 13.248301
						CHANNELS 3 Xrotation Yrotation Zrotation
						End Site
						{
							OFFSET 0.000000 13.262435 0.000000
						}
					}
				}
			}
		}
	}
	JOINT RightUpLeg
	{
		OFFSET -13.839300 -7.904099 -1.463000
		CHANNELS 3 Xrotation Yrotation Zrotation
		JOINT RightLeg
		{
			OFFSET 0.109694 -34.073219 4.093300
			CHANNELS 3 Xrotation Yrotation Zrotation
			JOINT RightFoot
			{
				OFFSET -0.109694 -29.899384 -6.319200
				CHANNELS 3 Xrotation Yrotation Zrotation
				JOINT RightToeBase
				{
					OFFSET -1.551100 -14.988700 20.535801
					CHANNELS 3 Xrotation Yrotation Zrotation
					JOINT RightToe_End
					{
						OFFSET -0.221200 0.570900 13.248299
						CHANNELS 3 Xrotation Yrotation Zrotation
						End Site
						{
							OFFSET 0.000000 13.262440 0.000000
						}
					}
				}
			}
		}
	}
}
MOTION
Frames: 4
Frame Time: 0.033333
0.421743 87.500351 1.222221 -3.753270 -5.221491 -3.385793 3.303764 1.519466 2.354369 1.134530 0.303992 1.552951 1.109573 0.361243 1.544331 5.622662 -0.090993 0.464118 -7.551112 1.349904 -0.085781 -0.000000 -0.000000 0.000000 1.046096 -17.446011 -12.316929 3.915813 -19.989402 -69.767589 -0.000009 -1.453262 -0.000015 -33.228290 -1.359631 -6.191143 -0.407821 -0.912723 -7.567465 0.268845 1.755995 -17.407492 0.057694 0.821052 -8.038977 0.000001 -0.000000 -0.000001 -0.666099 2.158568 4.837388 11.859651 25.414849 17.056654 -13.810185 3.541525 9.030354 -0.000001 -0.000001 -0.000001 1.178302 15.348629 14.707962 13.167427 27.548378 58.778791 0.000003 6.689807 0.000024 -20.174748 -0.523594 6.792876 -1.664528 -0.169106 -4.216944 12.710656 -29.837617 -16.127578 -15.546790 -3.554888 -12.703331 0.000002 0.000001 -0.000001 -0.390921 1.215761 6.807090 0.214621 -1.398893 17.443979 0.046093 -0.654340 8.059281 0.000001 0.000000 0.000002 -10.617088 14.618358 11.271176 14.384295 1.681607 4.174085 -0.894397 0.890785 -8.545395 -4.933146 -0.000013 -0.000001 -0.000000 0.000001 0.000000 4.104904 -10.120578 2.623584 5.688153 -9.454713 -3.261723 -5.213267 -2.101748 4.578521 -7.273477 0.000018 0.000003 -0.000001 -0.000000 -0.000000 
0.358528 87.473816 1.213459 -3.842415 -5.035618 -3.348214 3.316136 1.542091 2.399102 1.134530 0.303994 1.538679 1.109574 0.361244 1.533593 5.654679 -0.090992 0.470472 -7.175664 1.286518 -0.087591 0.000000 -0.000000 0.000000 1.050260 -17.407360 -12.295925 4.043734 -19.921999 -69.691760 0.000000 -1.811130 -0.000007 -33.096542 -1.179908 -6.141655 -0.419410 -0.954051 -7.656617 0.267188 1.750715 -17.353405 0.056763 0.814429 -7.973674 -0.000002 -0.000000 -0.000000 -0.644851 2.202125 4.794781 11.603235 25.082461 17.193796 -13.775860 3.648438 8.931484 -0.000001 0.000001 0.000003 1.176459 15.348764 14.714929 13.176429 27.546237 58.746177 -0.000002 6.679616 0.000003 -20.111091 -0.425043 6.847431 -1.686926 -0.137278 -4.078272 13.003576 -30.303418 -15.913767 -15.537772 -3.567361 -12.673476 0.000003 -0.000001 0.000001 -0.388113 1.187674 6.812253 0.211245 -1.388122 17.305396 0.049838 -0.680236 8.380502 0.000001 0.000001 -0.000001 -10.601022 14.543911 11.274781 14.458616 1.555199 4.180927 -0.894069 0.891671 -8.560336 -4.919512 0.000005 0.000003 -0.000000 -0.000000 -0.000000 4.129466 -10.153729 2.647737 5.942201 -9.527900 -3.292155 -5.409397 -2.170730 4.578895 -7.286781 -0.000002 -0.000000 0.000000 -0.000000 0.000000 
0.221614 87.426178 1.204450 -3.939094 -4.737071 -3.312584 3.350021 1.534245 2.532322 1.134530 0.303995 1.500502 1.109573 0.349416 1.495864 5.653509 -0.090994 0.488130 -6.789617 1.246414 -0.097289 -0.000000 0.000000 0.000000 1.049370 -17.262670 -12.299005 4.071320 -19.876303 -69.592797 -0.000008 -2.114358 -0.000015 -32.684071 -1.088273 -6.040677 -0.442058 -0.984367 -7.914912 0.267155 1.750621 -17.352475 0.056212 0.810484 -7.934835 -0.000001 -0.000000 -0.000000 -0.640349 2.236444 4.750839 11.417456 24.816599 17.297831 -13.747193 3.737949 8.853554 0.000001 0.000002 0.000002 1.170054 15.349245 14.739125 13.086305 27.460890 58.700189 -0.000002 6.649708 -0.000001 -19.933917 -0.225614 6.909731 -1.715639 -0.092845 -3.944311 13.069365 -30.402138 -15.860222 -15.539980 -3.440326 -12.765300 -0.000001 -0.000002 -0.000003 -0.379548 1.065288 6.890101 0.211357 -1.388467 17.309704 0.054814 -0.713170 8.789334 0.000004 -0.000000 -0.000000 -10.647485 14.396326 11.343106 14.608265 1.374755 4.174697 -0.908283 0.894079 -8.628137 -4.883695 0.000001 0.000002 0.000000 0.000000 0.000000 4.150693 -10.195859 2.755288 6.322754 -9.573955 -3.312995 -5.723574 -2.358969 4.510668 -7.309423 -0.000003 -0.000000 -0.000001 0.000000 0.000000 
0.017659 87.360970 1.190775 -4.034773 -4.373085 -3.270456 3.404397 1.531032 2.732912 1.134530 0.303995 1.437920 1.109573 0.330408 1.435272 5.622429 -0.090993 0.512955 -6.408148 1.242323 -0.114961 -0.000000 -0.000000 0.000000 1.043339 -17.020152 -12.327582 4.018260 -19.835040 -69.465667 0.000012 -2.407911 0.000030 -32.053835 -1.074617 -5.905441 -0.458927 -0.991014 -8.132778 0.266935 1.749888 -17.344941 0.055603 0.806127 -7.891890 -0.000000 -0.000000 0.000000 -0.642082 2.243933 4.705321 11.218329 24.540861 17.403327 -13.719402 3.824269 8.779495 -0.000000 -0.000002 0.000002 1.160958 15.340130 14.783089 12.874458 27.311811 58.647255 -0.000007 6.601024 0.000001 -19.618057 0.059841 6.419995 -1.746107 -0.040032 -3.875697 13.089785 -30.429278 -15.840307 -15.538160 -3.382228 -12.809485 -0.000001 0.000002 -0.000001 -0.377873 1.009259 6.960654 0.211070 -1.387555 17.297922 0.057270 -0.728879 8.984670 0.000000 -0.000002 0.000001 -10.746390 14.195745 11.469936 14.808443 1.151793 4.151873 -0.919389 0.897621 -8.738329 -4.824689 0.000004 -0.000001 -0.000001 0.000000 0.000000 4.147895 -10.254723 2.913712 6.815982 -9.627262 -3.338102 -6.128564 -2.655714 4.407133 -7.277780 0.000003 -0.000000 -0.000001 -0.000000 0.000000 
